<svg width="1324" height="133" viewBox="0 0 1324 133" fill="none" xmlns="http://www.w3.org/2000/svg">
<g filter="url(#filter0_d_1_522)">
<circle cx="1257.5" cy="52.5" r="22.5" fill="#FAFAFA"/>
<circle cx="1257.5" cy="52.5" r="21.5" stroke="#57007B" stroke-width="2"/>
</g>
<path d="M1250.94 51.5625H1262.06L1258.65 47.475C1258.49 47.2835 1258.42 47.0367 1258.44 46.7888C1258.46 46.5409 1258.58 46.3122 1258.77 46.1531C1258.97 45.9939 1259.21 45.9174 1259.46 45.9402C1259.71 45.9631 1259.94 46.0835 1260.1 46.275L1264.78 51.9C1264.82 51.9447 1264.84 51.9917 1264.87 52.0406C1264.87 52.0875 1264.87 52.1156 1264.93 52.1625C1264.98 52.2699 1265 52.3844 1265 52.5C1265 52.6155 1264.98 52.73 1264.93 52.8375C1264.93 52.8843 1264.93 52.9125 1264.87 52.9593C1264.84 53.0082 1264.82 53.0552 1264.78 53.1L1260.1 58.725C1260.01 58.8308 1259.9 58.9159 1259.77 58.9742C1259.65 59.0326 1259.51 59.0627 1259.37 59.0625C1259.16 59.0629 1258.94 58.9866 1258.77 58.8468C1258.68 58.7681 1258.6 58.6715 1258.54 58.5624C1258.49 58.4533 1258.45 58.334 1258.44 58.2112C1258.43 58.0884 1258.44 57.9646 1258.48 57.8468C1258.51 57.7291 1258.57 57.6197 1258.65 57.525L1262.06 53.4375H1250.94C1250.69 53.4375 1250.45 53.3387 1250.27 53.1629C1250.1 52.9871 1250 52.7486 1250 52.5C1250 52.2513 1250.1 52.0129 1250.27 51.837C1250.45 51.6612 1250.69 51.5625 1250.94 51.5625Z" fill="#57007B"/>
<circle cx="22.5" cy="52.5" r="21.5" stroke="#57007B" stroke-width="2"/>
<path d="M29.0625 51.5625H17.9438L21.3469 47.475C21.506 47.2835 21.5826 47.0367 21.5597 46.7888C21.5369 46.5409 21.4165 46.3122 21.225 46.1531C21.0335 45.9939 20.7867 45.9174 20.5388 45.9402C20.2909 45.9631 20.0623 46.0835 19.9031 46.275L15.2156 51.9C15.1841 51.9447 15.1559 51.9917 15.1312 52.0406C15.1312 52.0875 15.1313 52.1156 15.0656 52.1625C15.0231 52.2699 15.0009 52.3844 15 52.5C15.0009 52.6155 15.0231 52.73 15.0656 52.8375C15.0656 52.8843 15.0656 52.9125 15.1312 52.9593C15.1559 53.0082 15.1841 53.0552 15.2156 53.1L19.9031 58.725C19.9913 58.8308 20.1017 58.9159 20.2264 58.9742C20.3512 59.0326 20.4873 59.0627 20.625 59.0625C20.844 59.0629 21.0563 58.9866 21.225 58.8468C21.3199 58.7681 21.3984 58.6715 21.4559 58.5624C21.5134 58.4533 21.5489 58.334 21.5602 58.2112C21.5715 58.0884 21.5585 57.9646 21.5219 57.8468C21.4853 57.7291 21.4258 57.6197 21.3469 57.525L17.9438 53.4375H29.0625C29.3111 53.4375 29.5496 53.3387 29.7254 53.1629C29.9012 52.9871 30 52.7486 30 52.5C30 52.2513 29.9012 52.0129 29.7254 51.837C29.5496 51.6612 29.3111 51.5625 29.0625 51.5625Z" fill="#57007B"/>
<defs>
<filter id="filter0_d_1_522" x="1191" y="0" width="133" height="133" filterUnits="userSpaceOnUse" color-interpolation-filters="sRGB">
<feFlood flood-opacity="0" result="BackgroundImageFix"/>
<feColorMatrix in="SourceAlpha" type="matrix" values="0 0 0 0 0 0 0 0 0 0 0 0 0 0 0 0 0 0 127 0" result="hardAlpha"/>
<feOffset dy="14"/>
<feGaussianBlur stdDeviation="22"/>
<feColorMatrix type="matrix" values="0 0 0 0 0.0561111 0 0 0 0 0.0777333 0 0 0 0 0.133333 0 0 0 0.08 0"/>
<feBlend mode="normal" in2="BackgroundImageFix" result="effect1_dropShadow_1_522"/>
<feBlend mode="normal" in="SourceGraphic" in2="effect1_dropShadow_1_522" result="shape"/>
</filter>
</defs>
</svg>
